<?xml version="1.0" encoding="UTF-8" standalone="no"?>
<svg width="800px" height="600px" viewBox="0 0 800 600" version="1.1" xmlns="http://www.w3.org/2000/svg" xmlns:xlink="http://www.w3.org/1999/xlink" xmlns:sketch="http://www.bohemiancoding.com/sketch/ns">
    <!-- Generator: Sketch 3.0.4 (8053) - http://www.bohemiancoding.com/sketch -->
    <title>Artboard 1</title>
    <desc>Created with Sketch.</desc>
    <defs>
        <circle id="path-1" cx="123.5" cy="209.5" r="123.5"></circle>
        <circle id="path-2" cx="527.5" cy="209.5" r="123.5"></circle>
        <path id="path-3" d="M385,223 L424,83"></path>
        <path id="path-4" d="M508.813477,300 C520.996094,283.025391 527.598634,276.664064 545.59375,265.271484"></path>
        <path id="path-5" d="M489.275391,369.847168 C489.27539,387.217773 495.25,402.164062 497.87793,408.287598"></path>
        <path id="path-6" d="M252.076172,291.746094 L281,193"></path>
    </defs>
    <g id="Page-1" stroke="none" stroke-width="1" fill="none" fill-rule="evenodd" sketch:type="MSPage">
        <g id="Artboard-1" sketch:type="MSArtboardGroup">
            <g id="Group" sketch:type="MSLayerGroup" transform="translate(77.000000, 155.000000)">
                <g id="Oval-1">
                    <use stroke="none" sketch:type="MSShapeGroup" xlink:href="#path-1"></use>
                    <use stroke="#D0021B" stroke-width="8" stroke-linecap="round" xlink:href="#path-1"></use>
                </g>
                <circle id="Oval-3" stroke="#D0011B" stroke-width="8" stroke-linecap="round" sketch:type="MSShapeGroup" cx="123.5" cy="209.5" r="8.5"></circle>
                <g id="Oval-1-copy">
                    <use stroke="none" sketch:type="MSShapeGroup" xlink:href="#path-2"></use>
                    <use stroke="#D0021B" stroke-width="8" stroke-linecap="round" xlink:href="#path-2"></use>
                </g>
                <circle id="Oval-3-copy" stroke="#D0011B" stroke-width="8" stroke-linecap="round" sketch:type="MSShapeGroup" cx="527.5" cy="209.5" r="8.5"></circle>
                <circle id="Oval-3-copy-2" stroke="#D0011B" stroke-width="5" sketch:type="MSShapeGroup" cx="373" cy="240" r="32"></circle>
                <circle id="Oval-11" stroke="#D0011B" stroke-width="8" fill="#D0021B" sketch:type="MSShapeGroup" cx="373.5" cy="240.5" r="10.5"></circle>
                <path d="M187.0625,71.5507812 L372.099609,239.302734 L414.136719,88.4238281 L192.996094,52.0078125 L187.0625,71.5507812 Z" id="Path-1" stroke="#D0011B" stroke-width="8" stroke-linecap="round" sketch:type="MSShapeGroup"></path>
                <path d="M117.998047,211.772458 C117.998047,211.772458 164.703128,151.148438 184.648438,78.6191406 C204.59375,6.08984375 202.353516,9.73242188 202.353516,9.73242188 C202.353516,9.73242188 188.323639,5.0371089 175.730469,1.328125 C163.137299,-2.38085909 157.28125,3.13085966 154.927734,10.0820312 C152.574219,17.0332031 152.96289,27.1914059 162.587891,38.8339844 C172.212891,50.4765636 180.855469,42.1894531 180.855469,42.1894531" id="Path-2" stroke="#D0011B" stroke-width="8" stroke-linecap="round" sketch:type="MSShapeGroup"></path>
                <path d="M373.603516,242.207031 L528.630859,209.90625 L413.882812,89.7363281 C413.882812,89.7363281 427.234375,40.1347657 429.958984,29.4765625 C432.683594,18.8183594 446.666016,16.8769531 446.666016,16.8769531" id="Path-3" stroke="#D0011B" stroke-width="8" stroke-linecap="round" sketch:type="MSShapeGroup"></path>
                <path d="M122.012695,215.005859 C148.481445,175.047852 174.393554,115.013672 181.521484,89.0605469" id="Path-25" stroke="#D0011B" stroke-width="8" stroke-linecap="round" sketch:type="MSShapeGroup"></path>
                <g id="Path-27" stroke-width="8">
                    <use stroke="#F8E71C" sketch:type="MSShapeGroup" xlink:href="#path-3"></use>
                    <use stroke="#FFFFFF" xlink:href="#path-3"></use>
                </g>
            </g>
            <g id="Path-29" stroke-width="8">
                <use stroke="#F8E71C" sketch:type="MSShapeGroup" xlink:href="#path-4"></use>
                <use stroke="#FFFFFF" xlink:href="#path-4"></use>
            </g>
            <g id="Path-30" stroke-width="8">
                <use stroke="#F8E71C" sketch:type="MSShapeGroup" xlink:href="#path-5"></use>
                <use stroke="#FFFFFF" xlink:href="#path-5"></use>
            </g>
            <g id="Path-26" stroke-width="8">
                <use stroke="#F8E71C" sketch:type="MSShapeGroup" xlink:href="#path-6"></use>
                <use stroke="#FFFFFF" xlink:href="#path-6"></use>
            </g>
        </g>
    </g>
</svg>